<svg width="38" height="38" viewBox="0 0 38 38" fill="none" xmlns="http://www.w3.org/2000/svg">
<g clip-path="url(#clip0_174_1900)">
<path d="M1.67313 15.7959C2.31632 14.3844 3.46786 12.4701 4.76943 11.3298C6.47915 9.8328 8.63164 8.91694 10.5269 8.87945C10.5729 8.87866 10.6229 8.87815 10.676 8.87815C13.0194 8.87815 13.4623 9.84529 13.5174 10.4216C13.6825 12.1384 11.6456 12.3444 10.9756 12.4121C8.66767 12.6443 6.75613 14.2376 5.98712 16.5693C5.48974 18.0474 5.43739 19.6392 5.83625 21.1469C6.06143 21.9547 6.80145 23.5237 8.07149 24.1116C8.13314 24.0383 8.30766 23.8351 8.31329 23.829C9.39868 22.5864 10.5677 21.4192 11.8121 20.336C13.6009 18.7198 15.1607 16.8671 16.4486 14.8293C17.1161 13.7646 17.6429 12.6181 18.0156 11.4182C18.2379 10.7224 18.4375 9.96171 18.6419 9.02444C19.2841 6.07406 19.8712 4.98309 20.019 4.74015C21.9364 0.616842 25.4218 0.000197915 27.3322 0.000197915C27.745 -0.00286505 28.1572 0.0292961 28.5648 0.0959129C30.6366 0.259271 32.2192 2.43043 32.5137 2.86123C33.3499 3.5729 34.6007 3.75947 35.2801 3.80723C35.799 3.8371 36.2901 4.05277 36.6625 4.41574C37.1151 4.91934 37.3292 5.5934 37.2501 6.266C37.0556 7.87456 35.2664 9.17632 35.19 9.23121C35.1755 9.24168 35.1607 9.25137 35.1456 9.26029C34.5731 9.59469 33.5886 9.89562 32.2202 10.1539C31.5841 10.2752 30.7699 10.558 30.4447 10.8648C28.1824 12.9966 30.3993 16.9127 30.4072 16.9282C31.1874 18.0977 31.3011 19.5896 30.7066 20.8636C30.4518 21.3471 30.1264 21.7897 29.7413 22.1772C29.5516 22.3898 29.3727 22.5912 29.255 22.7556C28.9548 23.1839 28.734 23.663 28.6036 24.1694C28.1442 25.8724 28.1164 27.967 28.5186 30.5731C28.6656 31.1516 28.9781 31.6757 29.4176 32.0802L29.5128 32.1624C30.1956 32.7507 31.2281 33.6393 31.0599 34.8497C30.9021 35.9868 29.4388 36.5926 28.4431 36.5926C25.0751 36.5926 23.8918 33.6376 23.853 33.536C23.1319 31.9023 23.7006 28.7229 23.7675 28.3655C23.7718 28.3421 23.7779 28.3182 23.7853 28.2956C24.5712 25.8592 23.3795 22.8213 23.3678 22.7906C23.3621 22.7768 23.357 22.7625 23.3527 22.7483C23.1812 22.2857 23.2393 21.7689 23.5102 21.3566C24.0051 20.632 25.0463 20.5148 25.2295 20.4998L26.9279 20.2928C27.2038 20.2639 27.2669 20.1626 27.2906 20.1243C27.3909 19.8476 27.3963 19.5454 27.3057 19.2654C26.8225 18.9875 26.4222 18.5852 26.1471 18.1005C26.0892 18.0127 26.0335 17.9277 25.9764 17.8501C25.8054 17.6224 25.5937 17.4279 25.3525 17.276L23.8519 16.5029C23.6796 16.4138 23.5643 16.2441 23.5449 16.0511L23.4739 15.3354C20.1718 16.7903 20.014 20.7811 20.1118 22.5062C20.1764 24.4905 19.2741 26.3829 17.6915 27.5818C16.4911 28.4257 15.2797 29.9164 15.2797 31.3449V32.4799H16.862C16.887 32.4799 16.9123 32.4818 16.9373 32.4852C19.3634 32.8089 20.0595 34.9293 20.0888 36.0051C20.0916 36.1588 20.0329 36.3077 19.9257 36.4181C19.8185 36.5281 19.6715 36.5909 19.5176 36.5926H8.17536C8.07965 36.5926 7.98592 36.5687 7.90204 36.5228C5.8537 35.4062 4.87498 33.4577 5.07005 30.8884C5.07906 30.3826 4.87724 29.895 4.51272 29.5443C0.850647 26.3791 -0.396881 20.3405 1.67313 15.7959ZM26.437 1.19689C26.4132 1.2122 26.3882 1.22598 26.3622 1.23772C25.4341 1.62953 24.8055 3.10589 24.3462 4.18405C24.2355 4.44468 24.1316 4.68765 24.0328 4.89899C23.3244 6.40697 22.7767 7.963 23.5575 9.12636C23.9726 9.67336 24.5905 10.0299 25.272 10.1155C25.8376 10.2288 26.425 10.0981 26.8892 9.75581C28.0815 8.79202 27.7234 6.87254 27.4041 5.81406C26.6738 3.39177 27.2004 1.94755 27.7795 1.15729C27.6473 1.14912 26.7629 1.15809 26.437 1.19689ZM5.25921 28.6785C5.90099 29.2648 6.24918 30.1056 6.20949 30.9739C6.05215 33.0375 6.76373 34.542 8.32454 35.4487H18.8513C18.7446 34.971 18.4919 34.5386 18.1282 34.2115C17.7645 33.8845 17.3078 33.6787 16.8218 33.623H14.7076C14.3922 33.6227 14.1362 33.3671 14.1362 33.0513V31.3444C14.1362 29.3799 15.6973 27.5854 17.0181 26.6573C18.2921 25.6912 19.0195 24.1682 18.97 22.5701C18.8513 20.4658 19.0841 15.4182 23.8051 13.9964C23.9688 13.9471 24.1456 13.9736 24.2876 14.0688C24.4297 14.1638 24.5216 14.3175 24.5384 14.4875L24.6515 15.6279L25.8757 16.2589C26.2741 16.4909 26.6215 16.8013 26.8969 17.1714C26.9653 17.2646 27.0319 17.3651 27.1011 17.4692C27.3449 17.8391 27.556 18.1584 27.9728 18.3113C28.129 18.3685 28.2523 18.491 28.3105 18.6467C28.3587 18.7738 28.7643 19.9125 28.2633 20.7242C27.9981 21.1402 27.5481 21.4021 27.0555 21.4284L25.3555 21.6357C25.3455 21.6367 25.3359 21.6377 25.3261 21.6385C25.0972 21.6545 24.6063 21.7776 24.4537 22.0009C24.4289 22.0377 24.3631 22.1344 24.4376 22.3892C24.5685 22.7238 25.746 25.8789 24.884 28.6101C24.7189 29.5142 24.4146 31.9774 24.9078 33.0958C24.9458 33.1917 25.8703 35.4484 28.4427 35.4484C29.0451 35.4484 29.8729 35.0813 29.9275 34.6915C30.0099 34.0984 29.2914 33.4797 28.7669 33.0279L28.6694 32.9438C28.0246 32.3625 27.5771 31.5946 27.3888 30.7471C26.9617 27.9801 26.998 25.7306 27.4995 23.8705C27.666 23.2316 27.9457 22.6279 28.3256 22.0884C28.5014 21.8548 28.689 21.6304 28.8874 21.4158C29.1868 21.1136 29.4458 20.7743 29.6585 20.406C30.1023 19.4736 30.0161 18.3756 29.4321 17.5241C29.321 17.3319 26.7377 12.7859 29.6605 10.0318C30.363 9.36967 31.7374 9.08099 32.007 9.02995C32.8835 8.90157 33.7375 8.65091 34.5449 8.28589C34.9663 7.97502 36.0072 7.03006 36.1149 6.12622C36.1213 6.06038 36.1223 5.9935 36.1177 5.92738C35.8625 6.07313 35.5381 6.0004 35.3696 5.75945C35.2009 5.5185 35.2438 5.18897 35.4684 4.99905C35.3811 4.97198 35.291 4.95464 35.1999 4.94698C34.3603 4.88801 32.7888 4.64349 31.6989 3.66717C31.6614 3.63322 31.6282 3.59491 31.6006 3.55255C31.5887 3.53366 30.5189 1.91465 29.1388 1.39191C28.8874 1.55577 27.6157 2.55508 28.4986 5.48298C28.9009 6.81664 29.3205 9.26015 27.6075 10.6446C27.058 11.0755 26.3767 11.3034 25.6784 11.2899C25.4854 11.2896 25.2925 11.2748 25.1015 11.2457C24.1022 11.1147 23.201 10.5788 22.609 9.76344C21.3591 7.9022 22.4661 5.54496 22.998 4.41242C23.0922 4.21231 23.1897 3.98206 23.2951 3.73526C23.5562 3.0849 23.8625 2.45343 24.212 1.84593C22.7877 2.57392 21.6653 3.77996 21.0415 5.25272C21.0292 5.27851 21.0152 5.30353 20.9999 5.32777C20.994 5.33672 20.4111 6.26859 19.7584 9.26752C19.5455 10.2413 19.3377 11.0351 19.1039 11.7659C18.7021 13.0579 18.1345 14.2923 17.4152 15.4378C16.0685 17.5689 14.4369 19.5057 12.5654 21.1945C11.3461 22.2599 10.2001 23.4067 9.13521 24.6265C8.7614 25.1015 8.43348 25.6109 8.15594 26.148C8.01238 26.4275 7.67207 26.5413 7.38946 26.4045C7.10685 26.2636 6.99201 25.9201 7.13303 25.6378C7.23043 25.442 7.33654 25.2526 7.44323 25.0737C5.8948 24.2717 5.02248 22.4867 4.73481 21.453C4.27571 19.727 4.3337 17.904 4.90117 16.2107C5.81373 13.4438 8.09767 11.5522 10.8609 11.2737C12.3138 11.1269 12.4064 10.8132 12.3794 10.5304C12.3508 10.2354 11.6344 10.0209 10.6756 10.0209L10.5485 10.0222C8.93874 10.0539 7.012 10.8844 5.52155 12.1895C4.35678 13.21 3.30657 14.9661 2.71293 16.2694C0.87373 20.3082 2.01513 25.8758 5.25921 28.6785Z" fill="#3F7D58"/>
<path d="M29.2657 3.43149C29.2657 3.74722 29.5217 4.00301 29.8374 4.00301C30.1532 4.00301 30.4089 3.74722 30.4089 3.43149C30.4089 3.11575 30.1532 2.85974 29.8374 2.85974C29.5217 2.85974 29.2657 3.11575 29.2657 3.43149Z" fill="#3F7D58"/>
</g>
<defs>
<clipPath id="clip0_174_1900">
<rect width="36.8741" height="36.5926" fill="white" transform="matrix(-1 0 0 1 37.2955 0)"/>
</clipPath>
</defs>
</svg>
