<svg width="24" height="24" viewBox="0 0 24 24" fill="none" xmlns="http://www.w3.org/2000/svg">
<path d="M12.857 3.189H11.143C10.462 3.189 10.121 3.189 9.812 3.283C9.538 3.366 9.283 3.503 9.062 3.684C8.812 3.889 8.624 4.173 8.246 4.74L7.103 6.454C5.579 6.454 4.817 6.454 4.235 6.75C3.72325 7.01123 3.30737 7.42781 3.047 7.94C2.75 8.521 2.75 9.283 2.75 10.807V16.458C2.75 17.982 2.75 18.744 3.047 19.326C3.307 19.838 3.724 20.254 4.235 20.515C4.817 20.811 5.579 20.811 7.103 20.811H16.897C18.421 20.811 19.183 20.811 19.765 20.515C20.2767 20.2538 20.6926 19.8372 20.953 19.325C21.25 18.744 21.25 17.982 21.25 16.458V10.807C21.25 9.283 21.25 8.521 20.953 7.939C20.6925 7.42718 20.2766 7.01097 19.765 6.75C19.183 6.454 18.421 6.454 16.897 6.454L15.754 4.74C15.376 4.173 15.187 3.89 14.938 3.684C14.7165 3.50282 14.4617 3.36661 14.188 3.283C13.879 3.189 13.538 3.189 12.857 3.189Z" stroke="#C6BBBB" stroke-width="2" stroke-linecap="round" stroke-linejoin="round"/>
<path d="M15.7751 13.212C15.7751 13.7077 15.6775 14.1986 15.4877 14.6566C15.298 15.1146 15.02 15.5308 14.6694 15.8813C14.3189 16.2319 13.9027 16.5099 13.4447 16.6996C12.9867 16.8893 12.4958 16.987 12.0001 16.987C11.5044 16.987 11.0135 16.8893 10.5555 16.6996C10.0975 16.5099 9.68131 16.2319 9.33077 15.8813C8.98023 15.5308 8.70216 15.1146 8.51245 14.6566C8.32274 14.1986 8.2251 13.7077 8.2251 13.212C8.2251 12.2108 8.62282 11.2506 9.33077 10.5427C10.0387 9.8347 10.9989 9.43698 12.0001 9.43698C13.0013 9.43698 13.9615 9.8347 14.6694 10.5427C15.3774 11.2506 15.7751 12.2108 15.7751 13.212Z" stroke="#C6BBBB" stroke-width="2" stroke-linecap="round" stroke-linejoin="round"/>
</svg>
